<svg fill="none" height="24" viewBox="0 0 24 24" width="24" xmlns="http://www.w3.org/2000/svg"><g stroke="#292d32" stroke-linecap="round" stroke-linejoin="round"><g stroke-width="1.5"><path d="m8 2v3" stroke-miterlimit="10"/><path d="m16 2v3" stroke-miterlimit="10"/><path d="m18.2 21.4c1.7673 0 3.2-1.4327 3.2-3.2s-1.4327-3.2-3.2-3.2-3.2 1.4327-3.2 3.2 1.4327 3.2 3.2 3.2z"/><path d="m22 22-1-1"/><path d="m3.5 9.08984h17" stroke-miterlimit="10"/><path d="m3 13.01v-4.51c0-3 1.5-5 5-5h8c3.5 0 5 2 5 5v4.5" stroke-miterlimit="10"/><path d="m13.37 22h-5.37c-3.5 0-5-2-5-5" stroke-miterlimit="10"/></g><path d="m11.9945 13.7h.009" stroke-width="2"/><path d="m8.29529 13.7h.00898" stroke-width="2"/><path d="m8.29529 16.7h.00898" stroke-width="2"/></g></svg>