<svg fill="none" height="24" viewBox="0 0 24 24" width="24" xmlns="http://www.w3.org/2000/svg"><g stroke="#292d32" stroke-linecap="round" stroke-linejoin="round" stroke-width="1.5"><path d="m5.99953 5.17007-1.97 1.29c-1.93 1.26-1.93 4.08003 0 5.34003l6.01997 3.93c1.08.71 2.86.71 3.94 0l5.99-3.93c1.92-1.26 1.92-4.07003 0-5.33003l-5.99-3.93c-1.08-.71-2.86-.71-3.94 0"/><path d="m5.62914 13.0801-.01 4.69c0 1.27.98 2.63 2.18 3.03l3.18996 1.06c.55.18 1.46.18 2.02 0l3.19-1.06c1.2-.4 2.18-1.76 2.18-3.03v-4.64"/><path d="m21.4004 15v-6"/></g></svg>